<svg width="147" height="107" viewBox="0 0 147 107" fill="none" xmlns="http://www.w3.org/2000/svg">
<path d="M70.9725 91.0695C71.0784 91.2966 71.1318 91.5446 71.1286 91.7952L70.9862 103.469C70.9753 104.353 70.6134 105.197 69.9801 105.815C69.3468 106.432 68.494 106.773 67.6092 106.762L39.254 106.413C37.4492 106.391 35.8596 104.887 36.0096 102.929C36.121 101.485 36.3824 100.146 36.9908 98.9034C37.6094 97.6434 38.5313 96.5945 39.7972 95.6393L56.6744 87.9941C56.8619 87.894 57.069 87.7707 57.287 87.6422C58.4532 86.9497 59.9608 86.0546 60.867 87.3704C61.6723 88.51 62.8355 89.6642 64.1708 90.1273C65.0258 90.4254 66.2101 90.4633 67.3085 90.3843C67.5543 90.3647 67.7982 90.3427 68.0403 90.3184C69.0174 90.2216 69.9288 90.1343 70.5168 90.4835C70.7108 90.6421 70.8666 90.8424 70.9725 91.0695Z" fill="#101010"/>
<path d="M76.1453 91.0695C76.0394 91.2966 75.986 91.5446 75.9891 91.7952L76.1316 103.469C76.1425 104.353 76.5044 105.197 77.1377 105.815C77.771 106.432 78.6238 106.773 79.5086 106.762L107.864 106.413C109.669 106.391 111.258 104.887 111.108 102.929C110.997 101.485 110.735 100.146 110.127 98.9034C109.508 97.6434 108.587 96.5945 107.321 95.6393L90.4434 87.9941C90.2559 87.894 90.0487 87.7707 89.8308 87.6422C88.6646 86.9497 87.157 86.0546 86.2508 87.3704C85.4455 88.51 84.2822 89.6642 82.947 90.1273C82.092 90.4254 80.9077 90.4633 79.8092 90.3843C79.5635 90.3647 79.3196 90.3427 79.0775 90.3184C78.1003 90.2216 77.189 90.1343 76.601 90.4835C76.407 90.6421 76.2512 90.8424 76.1453 91.0695Z" fill="#101010"/>
<circle cx="73.9998" cy="39" r="39" fill="white"/>
<path d="M65.9998 55C68.8442 56.5684 76.0264 59.2348 81.9998 57.3527" stroke="#101010" stroke-width="1.97156" stroke-linecap="round"/>
<path d="M44.9998 31.5C44.9998 20.7304 50.5962 12 57.4998 12C59.8314 12 62.014 12.9959 63.8822 14.73L60.2341 26.43L68.3275 21.75C69.391 24.6182 69.9998 27.9482 69.9998 31.5C69.9998 42.2696 64.4033 51 57.4998 51C50.5962 51 44.9998 42.2696 44.9998 31.5Z" fill="#101010"/>
<path d="M78.9998 31.5C78.9998 20.7304 84.5962 12 91.4998 12C93.8314 12 96.014 12.9959 97.8822 14.73L94.2341 26.43L102.327 21.75C103.391 24.6182 104 27.9482 104 31.5C104 42.2696 98.4033 51 91.4998 51C84.5962 51 78.9998 42.2696 78.9998 31.5Z" fill="#101010"/>
<path d="M23.4967 64.8297C26.9404 65.7494 26.1107 53.0726 25.2655 46.6192C24.2027 45.8076 21.2906 43.5943 18.144 41.234C14.2108 38.2836 3.1281 52.1069 2.40678 56.9808C1.82973 60.8799 3.7536 60.0848 4.78767 59.1999C6.77247 56.4578 10.8745 50.8823 11.404 50.5171C11.9334 50.1518 12.0801 50.9088 12.0873 51.3329C10.4604 52.7984 6.91326 56.601 5.74 60.0876C4.56675 63.5743 6.4797 62.924 7.58283 62.163C9.89857 59.1926 14.6377 53.2806 15.0681 53.3956C15.4986 53.5106 15.5237 53.9395 15.4824 54.1396C13.7039 55.8812 9.86603 60.1762 8.74231 63.4227C7.61858 66.6692 9.99944 66.5028 11.3303 66.0138L19.5394 56.4897C19.4236 58.8865 20.053 63.9101 23.4967 64.8297Z" fill="white"/>
<rect width="21.8296" height="5.8265" rx="2.70685" transform="matrix(-0.763938 -0.64529 0.560565 -0.828111 29.3652 51.6598)" fill="#101010"/>
<path d="M124.135 65.0815C120.691 66.0011 121.521 53.3243 122.366 46.8709C123.429 46.0593 126.341 43.846 129.488 41.4857C133.421 38.5353 144.503 52.3586 145.225 57.2325C145.802 61.1316 143.878 60.3365 142.844 59.4516C140.859 56.7095 136.757 51.134 136.228 50.7688C135.698 50.4035 135.551 51.1605 135.544 51.5846C137.171 53.0501 140.718 56.8527 141.892 60.3394C143.065 63.826 141.152 63.1757 140.049 62.4147C137.733 59.4444 132.994 53.5323 132.563 53.6473C132.133 53.7623 132.108 54.1912 132.149 54.3913C133.928 56.1329 137.766 60.4279 138.889 63.6744C140.013 66.9209 137.632 66.7545 136.301 66.2655L128.092 56.7414C128.208 59.1382 127.579 64.1618 124.135 65.0815Z" fill="white"/>
<rect width="21.8296" height="5.8265" rx="2.70685" transform="matrix(0.763938 -0.64529 -0.560565 -0.828111 118.266 51.9115)" fill="#101010"/>
</svg>
