<svg width="143" height="125" viewBox="0 0 143 125" fill="none" xmlns="http://www.w3.org/2000/svg">
<circle cx="65.0466" cy="48.0466" r="48.0466" fill="white"/>
<path d="M60 64C62.6667 66 69.4 69.4 75 67" stroke="#101010" stroke-width="3" stroke-linecap="round"/>
<path d="M118.883 40.0649C117.283 39.2649 118.217 37.3982 118.883 36.5648C123.283 34.5648 125.05 39.3982 125.383 42.0648C126.217 38.0648 128.583 29.8648 131.383 29.0648C134.183 28.2648 132.55 35.0648 131.383 38.5648C132.383 36.7315 134.817 33.2574 135.383 32.5649C136.269 31.4818 137.881 29.8976 139.883 32.0649C140.449 32.6766 137.045 37.7075 135.883 41.0649L138.883 38.0648C139.883 37.2315 141.683 35.4649 142.883 37.0649C140.883 40.5648 136.583 48.3648 135.383 51.5648C134.183 54.7648 128.217 54.2315 125.383 53.5649C120.583 51.1649 120.383 46.5649 120.883 44.5649C120.883 43.3982 120.483 40.8649 118.883 40.0649Z" fill="white"/>
<path d="M24 85.0057C25.6 85.8057 24.6666 87.6724 24 88.5057C19.6 90.5057 17.8333 85.6724 17.5 83.0057C16.6666 87.0057 14.3 95.2057 11.5 96.0057C8.69998 96.8057 10.3333 90.0057 11.5 86.5057C10.5 88.339 8.06601 91.8132 7.49998 92.5057C6.61479 93.5887 5.00262 95.1729 2.99998 93.0057C2.43473 92.394 5.83821 87.3631 6.99998 84.0057L3.99998 87.0057C2.99998 87.8391 1.19998 89.6057 -2.28882e-05 88.0057C1.99998 84.5057 6.29998 76.7057 7.49998 73.5057C8.69998 70.3057 14.6666 70.839 17.5 71.5057C22.3 73.9057 22.5 78.5057 22 80.5057C22 81.6724 22.4 84.2057 24 85.0057Z" fill="white"/>
<path d="M37.4578 30.9679C39.3675 42.3129 46.8017 50.519 54.0625 49.2968C56.5148 48.884 58.6337 47.4484 60.2911 45.2909L54.3795 33.6117L63.7215 37.1089C64.3315 33.8991 64.3813 30.2834 63.7514 26.5419C61.8417 15.1969 54.4076 6.9908 47.1468 8.21301C39.886 9.43523 35.5481 19.6229 37.4578 30.9679Z" fill="#101010"/>
<path d="M75.4578 30.9679C77.3675 42.3129 84.8017 50.519 92.0625 49.2968C94.5148 48.884 96.6337 47.4484 98.2911 45.2909L92.3795 33.6117L101.722 37.1089C102.332 33.8991 102.381 30.2834 101.751 26.5419C99.8417 15.1969 92.4076 6.9908 85.1468 8.21301C77.886 9.43523 73.5481 19.6229 75.4578 30.9679Z" fill="#101010"/>
<path d="M29.1929 105.4C29.0622 105.68 28.9963 105.987 29.0002 106.296L29.176 120.707C29.1895 121.799 29.6363 122.841 30.4181 123.604C31.2 124.366 32.2529 124.787 33.3451 124.774L68.3516 124.343C70.5797 124.315 72.5422 122.458 72.357 120.042C72.2195 118.258 71.8967 116.606 71.1457 115.071C70.382 113.516 69.2438 112.221 67.681 111.042L46.8449 101.603C46.6134 101.48 46.3577 101.327 46.0886 101.169C44.6489 100.314 42.7876 99.2087 41.6688 100.833C40.6747 102.24 39.2386 103.665 37.5901 104.237C36.5346 104.605 35.0725 104.652 33.7163 104.554C33.4129 104.53 33.1118 104.503 32.8129 104.473C31.6066 104.353 30.4815 104.245 29.7555 104.676C29.516 104.872 29.3237 105.12 29.1929 105.4Z" fill="#101010"/>
<path d="M75.1929 105.4C75.0622 105.68 74.9963 105.987 75.0002 106.296L75.176 120.707C75.1895 121.799 75.6363 122.841 76.4181 123.604C77.2 124.366 78.2529 124.787 79.3451 124.774L114.352 124.343C116.58 124.315 118.542 122.458 118.357 120.042C118.22 118.258 117.897 116.606 117.146 115.071C116.382 113.516 115.244 112.221 113.681 111.042L92.8449 101.603C92.6134 101.48 92.3577 101.327 92.0886 101.169C90.6489 100.314 88.7876 99.2087 87.6688 100.833C86.6747 102.24 85.2386 103.665 83.5901 104.237C82.5346 104.605 81.0725 104.652 79.7163 104.554C79.4129 104.53 79.1118 104.503 78.8129 104.473C77.6066 104.353 76.4815 104.245 75.7555 104.676C75.516 104.872 75.3237 105.12 75.1929 105.4Z" fill="#101010"/>
</svg>
